<?xml version="1.0" encoding="utf-8"?>
<!-- Generator: Adobe Illustrator 28.0.0, SVG Export Plug-In . SVG Version: 6.00 Build 0)  -->
<svg version="1.1" id="Capa_1" xmlns="http://www.w3.org/2000/svg" xmlns:xlink="http://www.w3.org/1999/xlink" x="0px" y="0px"
	 viewBox="0 0 841.9 595.3" style="enable-background:new 0 0 841.9 595.3;" xml:space="preserve">
<style type="text/css">
	.st0{fill:#231E47;}
	.st1{fill:#FFFFFF;}
</style>
<g>
	<path class="st0" d="M292,576.5c-48.5,0-97.3-11.6-145-34.3c-35.1-16.7-75-39.1-72.1-64.5c2.8-25.2,48.7-41.5,79.1-52.3
		c15.2-5.4,28.3-8.7,38.8-11.4c20-5.1,31.1-7.9,36.4-18.8c3.4-6.8,11.6-50.7,18.8-89.4c5.9-31.7,12-64.5,16.5-82.9
		c0.2-0.8,5-20.4,13.3-38.1c14.3-30.5,33.8-43.4,63.5-62.8c15.4-10.1,34.6-22.7,57.6-40.8c18.4-14.4,31.1-26.1,41.4-35.4
		c20-18.2,31-28.3,54.6-31.9c5.4-0.8,11-1.3,16.7-1.3c12.9,0,33.2,2.2,57.1,12.9c25.5,11.6,41.3,28.4,58,46.2l0.1,0.1
		c31.1,33.1,53,104.4,49.8,129.9c-2.4,18.6-9.9,45.2-32.2,65.9c-17.2,16-41.2,21.7-56.5,21.7c-7.1,0-16.1-1.2-18.6-7
		c-2.7-6.4,4.4-13.5,22.3-28.2l1.7-1.4c1.3-1.1,2.8-2.1,4.4-3.3c9.7-6.8,22.9-16.1,24.8-53.4c0.7-13-7.2-23.6-23.4-31.3
		c-6.5-3.1-14.1-4.8-21.9-4.8c-15.5,0-30.8,6.3-40.9,16.8c-11.5,11.9-13.6,26.4-15.8,41.8l0,0.2c-3,21.2,9.9,129.9,63,178.2
		c18.4,16.7,37.4,20,59.4,23.9c10,1.7,20.3,3.5,31.1,6.8c20.8,6.2,43.6,16.5,61,27.4c22.5,14.1,33.4,27.4,32.4,39.6
		c-1.5,19-31.9,31.8-50,37.8c-28.6,9.5-63.8,14.9-96.5,14.9c-0.7,0-1.4,0-2.2,0c-32.5-0.3-54.8-6.1-74.5-11.3
		c-16.9-4.4-32.9-8.6-53-8.6c-8.2,0-16.6,0.7-25.6,2.1c-22.7,3.5-32,8.8-43.9,15.4c-10.8,6.1-23.1,13-47.8,20
		C347.2,572.7,319.7,576.5,292,576.5z"/>
	<path class="st1" d="M511.4,17.1c27,0,49.1,9.7,55.3,12.5c24.7,11.2,39.7,27.2,56.7,45.3c31.4,33.4,51.5,103.4,48.6,126.3
		c-2.9,22.9-12.4,46.1-30.8,63.2c-15.9,14.7-38.7,20.5-53.5,20.5c-7.8,0-13.3-1.6-14.5-4.3c-1.9-4.5,13.7-16.9,22.7-24.3
		s28.5-14.3,30.8-59.9c0.9-17.2-11.1-28.5-25.9-35.6c-7.4-3.6-15.6-5.2-23.8-5.2c-16.4,0-33,6.6-44.2,18.2
		c-12.6,13-14.8,28.9-17,44.5c-3.5,24.5,11.3,133.9,64.4,182.2c28.2,25.6,58.5,21.5,92.3,31.6c37.7,11.3,92,39.6,90.2,62.3
		c-2,25.6-75.8,48.6-142,48.6c-0.7,0-1.4,0-2.1,0c-59.9-0.5-83.3-19.9-127.6-19.9c-8,0-16.6,0.6-26.3,2.1
		c-44.4,6.8-40.8,21-92.3,35.6C344.1,568.9,317,572,292,572c-72.1,0-126.6-26-143.1-33.9c-20-9.5-72.5-34.6-69.6-59.9
		c2.5-22.4,47.4-38.4,76.1-48.6c44-15.7,68.2-13,77.7-32.4c6.4-13,25.4-131,35.6-173.3c0,0,4.8-19.7,13-37.2
		c21-45,53-49.4,119.8-102c54.4-42.8,60.2-61.2,93.9-66.4C500.9,17.5,506.2,17.1,511.4,17.1 M511.4,8.1c-5.9,0-11.8,0.4-17.4,1.3
		c-24.9,3.8-36.3,14.2-57,33c-10.2,9.3-22.9,20.9-41.1,35.2c-22.9,18-42,30.5-57.3,40.6c-30.3,19.9-50.3,33-65.1,64.7
		c-8.5,18.1-13.4,38-13.6,38.9c-4.5,18.5-10.6,51.4-16.5,83.2c-6.5,34.6-15.3,82-18.4,88.3c-4.3,8.7-13.3,11.3-33.5,16.4
		c-10.6,2.7-23.7,6-39.2,11.5c-14.1,5-33.3,11.8-49.1,20.3c-20.7,11.1-31.5,22.8-32.9,35.8c-1.7,14.6,8.1,29,30,44.3
		c16.1,11.2,34.7,20,44.7,24.8c8.6,4.1,26.6,12.7,51.9,20.4c31.5,9.5,63.4,14.4,95,14.4c28.1,0,56-3.9,82.9-11.5
		c25.3-7.2,37.8-14.2,48.8-20.4c11.5-6.5,20.5-11.6,42.4-14.9c8.8-1.3,17-2,24.9-2c19.5,0,34.5,3.9,51.9,8.5
		c19.9,5.2,42.5,11.1,75.6,11.4c0.7,0,1.5,0,2.2,0c33.2,0,68.9-5.5,97.9-15.2c23.3-7.7,51.5-21.3,53.1-41.8
		c1.1-14-10.5-28.7-34.5-43.7c-17.7-11.1-40.9-21.5-62.1-27.9c-11-3.3-21.5-5.1-31.6-6.9c-21.3-3.7-39.7-6.9-57.2-22.8
		c-27.2-24.8-42.6-65.7-50.8-95.7c-9.8-36.2-12.2-68.2-10.8-78.5l0-0.2c2.1-14.6,4-28.5,14.5-39.3c9.3-9.7,23.4-15.5,37.7-15.5
		c7.1,0,14,1.5,19.9,4.3c14.4,6.9,21.4,16,20.8,27c-1.8,35.1-14,43.7-22.9,50c-1.6,1.2-3.2,2.3-4.7,3.5l-1.7,1.4
		c-4.7,3.9-10.6,8.7-15.2,13.2c-3.9,3.8-12,11.8-8.4,20.2l0,0l0,0c2.8,6.4,10.5,9.7,22.8,9.7c16.1,0,41.4-6,59.6-22.9
		c23.3-21.7,31.1-49.3,33.6-68.7c1.7-13.3-2.9-37.6-11.9-63.3c-6-17.1-19-48.9-39.1-70.3l-0.1-0.1c-17.1-18.2-33.2-35.3-59.4-47.2
		l0,0l0,0C545.8,10.4,524.7,8.1,511.4,8.1L511.4,8.1z"/>
</g>
</svg>
